# xmcd
#
# Track frame offsets:
#	150
#	16307
#	33028
#	48896
#	64900
#	81643
#	96282
#	111488
#	128307
#	144567
#	160739
#	176430
#	191929
#	206367
#	222752
#	240120
#	255320
#	271709
#	289394
#	304641
#
# Disc length: 4288 seconds
#
# Revision: 1
# Processed by: cddbd v1.5PL3 Copyright (c) Steve Scherf et al.
# Submitted via: audiograbber 1.81.02
#
DISCID=0f10be14
DTITLE=Via Gra - Vot Takie Dela
DYEAR=2003
DGENRE=Pop
TTITLE0=Vot takie dela
TTITLE1=Ubei svou podrugu
TTITLE2=Ne ostavlyay menya, lubimiy !
TTITLE3=Good morning, papa !
TTITLE4=Stop ! Stop ! Stop !
TTITLE5=Poyavis moy sujeniy
TTITLE6=Popitka nomer 5
TTITLE7=Ya ne vernus
TTITLE8=Zaklinanie
TTITLE9=Poznakomsya s moey mamoy
TTITLE10=Shto je ya nadelala ?
TTITLE11=Bomba
TTITLE12=Obnimi menya
TTITLE13=Otpustil bi ti menya
TTITLE14=Seichas ili nikogda
TTITLE15=Spasibo za leto
TTITLE16=Kajdiy den
TTITLE17=Stop ! Stop ! Stop ! (latino mix by YAD)
TTITLE18=Good morning, papa ! (ING mix by RainMan)
TTITLE19=Ne ostavlyay menya, lubimiy ! (Space mix by RainMan)
EXTD=
EXTT0=
EXTT1=
EXTT2=
EXTT3=
EXTT4=
EXTT5=
EXTT6=
EXTT7=
EXTT8=
EXTT9=
EXTT10=
EXTT11=
EXTT12=
EXTT13=
EXTT14=
EXTT15=
EXTT16=
EXTT17=
EXTT18=
EXTT19=
PLAYORDER=
